<?xml version="1.0" encoding="utf-8"?>
<!-- Generator: Adobe Illustrator 28.1.0, SVG Export Plug-In . SVG Version: 6.00 Build 0)  -->
<svg version="1.1" id="Layer_1" xmlns:ev="http://www.w3.org/2001/xml-events"
	 xmlns="http://www.w3.org/2000/svg" xmlns:xlink="http://www.w3.org/1999/xlink" x="0px" y="0px" viewBox="0 0 12200 270"
	 style="enable-background:new 0 0 12200 270;" xml:space="preserve">
<style type="text/css">
	.st0{fill:#92000A;}
	.st1{fill:#E52B50;}
	.st2{fill:#40E0D0;}
	.st3{fill:#8A496B;}
	.st4{fill:#0055A5;}
	.st5{fill:#ADE7B5;}
	.st6{fill:#DE3163;}
	.st7{fill:#A0522D;}
	.st8{fill:#E3256B;}
	.st9{fill:#960018;}
	.st10{fill:#D9381E;}
	.st11{fill:#FBCEB1;}
	.st12{fill:#F8B878;}
	.st13{fill:#0047AB;}
	.st14{fill:#0014A8;}
	.st15{fill:#2E2787;}
	.st16{fill:#F8F6F0;}
	.st17{fill:#FFF1E6;}
	.st18{fill:#00A86B;}
	.st19{fill:#9867C5;}
	.st20{fill:#66023C;}
	.st21{fill:#B43757;}
	.st22{fill:#C41E3A;}
	.st23{fill:#90E0F7;}
	.st24{fill:#AEEDF7;}
	.st25{fill:#0BDA51;}
	.st26{fill:#05472A;}
	.st27{fill:#E4D00A;}
	.st28{fill:#D6B85A;}
	.st29{fill:#6F8FAF;}
	.st30{fill:#D79FC7;}
	.st31{fill:#FFDAB9;}
	.st32{fill:#DE6FA1;}
	.st33{fill:#FAF6F0;}
	.st34{fill:#F7FAFE;}
	.st35{fill:#D4A207;}
	.st36{fill:#81BE83;}
	.st37{fill:#234F1E;}
	.st38{fill:#777696;}
	.st39{fill:#B5545D;}
	.st40{fill:#C94040;}
	.st41{fill:#A54E77;}
	.st42{fill:#9966CC;}
	.st43{fill:#059033;}
	.st44{fill:#283B1F;}
	.st45{fill:#207337;}
	.st46{fill:#B22222;}
	.st47{fill:#EE2C2C;}
	.st48{fill:#8B1A1A;}
	.st49{fill:#FFEF00;}
	.st50{fill:#F8CC52;}
	.st51{fill:#8F99FB;}
	.st52{fill:#6A5DFF;}
	.st53{fill:#A0DC00;}
	.st54{fill:#00BA47;}
	.st55{fill:#195256;}
	.st56{fill:#007474;}
	.st57{fill:#43B3AE;}
	.st58{fill:#3AB09E;}
	.st59{fill:#9A114F;}
	.st60{fill:#CF3476;}
</style>
<image style="overflow:visible;" width="1024" height="1183" xlink:href="../Downloads/colour_wheel__rgb__by_geckobot_db0kpzm-fullview.png"  transform="matrix(7.7434 0 0 5.508 2548.7107 233.3298)">
</image>
<g>
	<rect x="6120.2" y="5514.9" class="st0" width="200" height="200"/>
	<text transform="matrix(1 0 0 1 6125.1582 5744.9106)" style="font-family:'MesloLGS-NF-Regular'; font-size:20px;">1.2</text>
	<text transform="matrix(1 0 0 1 6125.1582 5769.9106)" style="font-family:'MesloLGS-NF-Regular'; font-size:20px;">Sangria</text>
	<text transform="matrix(1 0 0 1 6179.1587 5622.9106)" style="font-family:'MesloLGS-NF-Regular'; font-size:20px;">#92000A</text>
</g>
<g>
	<rect x="5616.8" y="4533.6" class="st1" width="200" height="200"/>
	<text transform="matrix(1 0 0 1 5621.8208 4763.5898)" style="font-family:'MesloLGS-NF-Regular'; font-size:20px;">1.3</text>
	<text transform="matrix(1 0 0 1 5621.8208 4788.5898)" style="font-family:'MesloLGS-NF-Regular'; font-size:20px;">Amaranth</text>
	<text transform="matrix(1 0 0 1 5675.8208 4641.5898)" style="font-family:'MesloLGS-NF-Regular'; font-size:20px;">#E52B50</text>
</g>
<g>
	<rect x="6928" y="1771.9" class="st2" width="200" height="200"/>
	<text transform="matrix(1 0 0 1 6932.9727 2001.9385)" style="font-family:'MesloLGS-NF-Regular'; font-size:20px;">1.4</text>
	<text transform="matrix(1 0 0 1 6932.9727 2026.9385)" style="font-family:'MesloLGS-NF-Regular'; font-size:20px;">Turkuaz</text>
	<text transform="matrix(1 0 0 1 6986.9727 1879.9385)" style="font-family:'MesloLGS-NF-Regular'; font-size:20px;">#40E0D0</text>
</g>
<g>
	<rect x="5259.7" y="4211.6" class="st3" width="200" height="200"/>
	<text transform="matrix(1 0 0 1 5264.687 4441.5908)" style="font-family:'MesloLGS-NF-Regular'; font-size:20px;">1.5</text>
	<text transform="matrix(1 0 0 1 5264.687 4466.5908)" style="font-family:'MesloLGS-NF-Regular'; font-size:20px;">Twilight</text>
	<text transform="matrix(1 0 0 1 5318.687 4319.5908)" style="font-family:'MesloLGS-NF-Regular'; font-size:20px;">#8A496B</text>
</g>
<g>
	<rect x="5418.8" y="1632.5" class="st4" width="200" height="200"/>
	<text transform="matrix(1 0 0 1 5423.7744 1862.4755)" style="font-family:'MesloLGS-NF-Regular'; font-size:20px;">1.5.1</text>
	<text transform="matrix(1 0 0 1 5423.7744 1887.4755)" style="font-family:'MesloLGS-NF-Regular'; font-size:20px;">Moonlight</text>
	<text transform="matrix(1 0 0 1 5477.7744 1740.4755)" style="font-family:'MesloLGS-NF-Regular'; font-size:20px;">#0055A5</text>
</g>
<g>
	<rect x="7053.6" y="3327" class="st5" width="200" height="200"/>
	<text transform="matrix(1 0 0 1 7058.5938 3556.9719)" style="font-family:'MesloLGS-NF-Regular'; font-size:20px;">1.6</text>
	<text transform="matrix(1 0 0 1 7058.5938 3581.9719)" style="font-family:'MesloLGS-NF-Regular'; font-size:20px;">Celadon</text>
	<text transform="matrix(1 0 0 1 7112.5938 3434.9719)" style="font-family:'MesloLGS-NF-Regular'; font-size:20px;">#ADE7B5</text>
</g>
<g>
	<rect x="5113.4" y="4733.3" class="st6" width="200" height="200"/>
	<text transform="matrix(1 0 0 1 5118.3652 4963.3433)" style="font-family:'MesloLGS-NF-Regular'; font-size:20px;">1.6.1</text>
	<text transform="matrix(1 0 0 1 5118.3652 4988.3433)" style="font-family:'MesloLGS-NF-Regular'; font-size:20px;">Cerise</text>
	<text transform="matrix(1 0 0 1 5172.3652 4841.3433)" style="font-family:'MesloLGS-NF-Regular'; font-size:20px;">#DE3163</text>
</g>
<g>
	<rect x="7503.2" y="5235.2" class="st7" width="200" height="200"/>
	<text transform="matrix(1 0 0 1 7508.1787 5465.2275)" style="font-family:'MesloLGS-NF-Regular'; font-size:20px;">1.7</text>
	<text transform="matrix(1 0 0 1 7508.1787 5490.2275)" style="font-family:'MesloLGS-NF-Regular'; font-size:20px;">Sienna</text>
	<text transform="matrix(1 0 0 1 7562.1787 5343.2275)" style="font-family:'MesloLGS-NF-Regular'; font-size:20px;">#A0522D</text>
</g>
<g>
	<text transform="matrix(1 0 0 1 4988.9512 4636.0898)" style="font-family:'MesloLGS-NF-Regular'; font-size:20px;">1.7.1</text>
	<g>
		<rect x="4984" y="4406.1" class="st8" width="200" height="200"/>
		<text transform="matrix(1 0 0 1 4988.9512 4661.0898)" style="font-family:'MesloLGS-NF-Regular'; font-size:20px;">Razzmatazz</text>
		<text transform="matrix(1 0 0 1 5042.9512 4514.0898)" style="font-family:'MesloLGS-NF-Regular'; font-size:20px;">#E3256B</text>
	</g>
</g>
<g>
	<rect x="5741.3" y="5408" class="st9" width="200" height="200"/>
	<text transform="matrix(1 0 0 1 5746.2695 5638.0371)" style="font-family:'MesloLGS-NF-Regular'; font-size:20px;">1.7.2</text>
	<text transform="matrix(1 0 0 1 5746.2695 5663.0371)" style="font-family:'MesloLGS-NF-Regular'; font-size:20px;">Carmine</text>
	<text transform="matrix(1 0 0 1 5800.2695 5516.0371)" style="font-family:'MesloLGS-NF-Regular'; font-size:20px;">#960018</text>
</g>
<g>
	<text transform="matrix(1 0 0 1 6688.7764 5377.0273)" style="font-family:'MesloLGS-NF-Regular'; font-size:20px;">1.7.3</text>
	<g>
		<rect x="6683.8" y="5147" class="st10" width="200" height="200"/>
		<text transform="matrix(1 0 0 1 6688.7764 5402.0273)" style="font-family:'MesloLGS-NF-Regular'; font-size:20px;">Vermilion</text>
		<text transform="matrix(1 0 0 1 6742.7764 5255.0273)" style="font-family:'MesloLGS-NF-Regular'; font-size:20px;">#D9381E</text>
	</g>
</g>
<g>
	<rect x="6420.2" y="4192.5" class="st11" width="200" height="200"/>
	<text transform="matrix(1 0 0 1 6425.2275 4422.4971)" style="font-family:'MesloLGS-NF-Regular'; font-size:20px;">2.0.0</text>
	<text transform="matrix(1 0 0 1 6425.2275 4447.4971)" style="font-family:'MesloLGS-NF-Regular'; font-size:20px;">Apricot</text>
	<text transform="matrix(1 0 0 1 6479.2275 4300.4971)" style="font-family:'MesloLGS-NF-Regular'; font-size:20px;">#FBCEB1</text>
</g>
<g>
	<rect x="6767.2" y="4226.8" class="st12" width="200" height="200"/>
	<text transform="matrix(1 0 0 1 6772.2432 4456.8408)" style="font-family:'MesloLGS-NF-Regular'; font-size:20px;">2.0.1</text>
	<text transform="matrix(1 0 0 1 6772.2432 4481.8408)" style="font-family:'MesloLGS-NF-Regular'; font-size:20px;">Mellow</text>
	<text transform="matrix(1 0 0 1 6826.2432 4334.8408)" style="font-family:'MesloLGS-NF-Regular'; font-size:20px;">#F8B878</text>
</g>
<g>
	<rect x="5078.5" y="1660.8" class="st13" width="200" height="200"/>
	<text transform="matrix(1 0 0 1 5083.4902 1890.8376)" style="font-family:'MesloLGS-NF-Regular'; font-size:20px;">3.0.0</text>
	<text transform="matrix(1 0 0 1 5083.4902 1915.8376)" style="font-family:'MesloLGS-NF-Regular'; font-size:20px;">Cobalt</text>
	<text transform="matrix(1 0 0 1 5137.4902 1768.8376)" style="font-family:'MesloLGS-NF-Regular'; font-size:20px;">#0047AB</text>
</g>
<g>
	<text transform="matrix(1 0 0 1 4292.061 2231.1426)" style="font-family:'MesloLGS-NF-Regular'; font-size:20px;">3.0.1</text>
	<g>
		<rect x="4287.1" y="2001.1" class="st14" width="200" height="200"/>
		<text transform="matrix(1 0 0 1 4292.061 2256.1426)" style="font-family:'MesloLGS-NF-Regular'; font-size:20px;">Zaffre</text>
		<text transform="matrix(1 0 0 1 4346.061 2109.1426)" style="font-family:'MesloLGS-NF-Regular'; font-size:20px;">#0014A8</text>
	</g>
</g>
<g>
	<rect x="3637" y="2820.2" class="st15" width="200" height="200"/>
	<text transform="matrix(1 0 0 1 3642.0054 3050.2383)" style="font-family:'MesloLGS-NF-Regular'; font-size:20px;">3.0.2</text>
	<text transform="matrix(1 0 0 1 3642.0054 3075.2383)" style="font-family:'MesloLGS-NF-Regular'; font-size:20px;">Picotee</text>
	<text transform="matrix(1 0 0 1 3696.0054 2928.2383)" style="font-family:'MesloLGS-NF-Regular'; font-size:20px;">#2E2787</text>
</g>
<g>
	<text transform="matrix(1 0 0 1 6765.6172 3764.5974)" style="font-family:'MesloLGS-NF-Regular'; font-size:20px;">3.1.0</text>
	<text transform="matrix(1 0 0 1 6765.6172 3789.5974)" style="font-family:'MesloLGS-NF-Regular'; font-size:20px;">Pearl</text>
	<g>
		<rect x="6760.6" y="3534.6" class="st16" width="200" height="200"/>
		<text transform="matrix(1 0 0 1 6819.6172 3642.5974)" style="font-family:'MesloLGS-NF-Regular'; font-size:20px;">#F8F6F0</text>
	</g>
</g>
<g>
	<rect x="6420.2" y="3646.8" class="st17" width="200" height="200"/>
	<text transform="matrix(1 0 0 1 6425.2275 3876.8435)" style="font-family:'MesloLGS-NF-Regular'; font-size:20px;">3.1.1</text>
	<text transform="matrix(1 0 0 1 6425.2275 3901.8435)" style="font-family:'MesloLGS-NF-Regular'; font-size:20px;">Coconut</text>
	<text transform="matrix(1 0 0 1 6479.2275 3754.8435)" style="font-family:'MesloLGS-NF-Regular'; font-size:20px;">#FFF1E6</text>
</g>
<g>
	<text transform="matrix(1 0 0 1 7964.7402 2078.1785)" style="font-family:'MesloLGS-NF-Regular'; font-size:20px;">3.2.0</text>
	<text transform="matrix(1 0 0 1 7964.7402 2103.1785)" style="font-family:'MesloLGS-NF-Regular'; font-size:20px;">Jade</text>
	<g>
		<rect x="7959.7" y="1848.2" class="st18" width="200" height="200"/>
		<text transform="matrix(1 0 0 1 8018.7402 1956.1785)" style="font-family:'MesloLGS-NF-Regular'; font-size:20px;">#00A86B</text>
	</g>
</g>
<g>
	<g>
		<rect x="5143.1" y="3195.8" class="st19" width="200" height="200"/>
		<text transform="matrix(1 0 0 1 5148.1035 3425.8049)" style="font-family:'MesloLGS-NF-Regular'; font-size:20px;">3.3.0</text>
		<text transform="matrix(1 0 0 1 5148.1035 3450.8049)" style="font-family:'MesloLGS-NF-Regular'; font-size:20px;">Iris</text>
	</g>
	<text transform="matrix(1 0 0 1 5202.1035 3303.8049)" style="font-family:'MesloLGS-NF-Regular'; font-size:20px;">#9867C5</text>
</g>
<g>
	<text transform="matrix(1 0 0 1 4339.5278 5260.4648)" style="font-family:'MesloLGS-NF-Regular'; font-size:20px;">3.3.1</text>
	<g>
		<rect x="4334.5" y="5030.5" class="st20" width="200" height="200"/>
		<text transform="matrix(1 0 0 1 4339.5278 5285.4648)" style="font-family:'MesloLGS-NF-Regular'; font-size:20px;">Tyrian</text>
		<text transform="matrix(1 0 0 1 4393.5278 5138.4644)" style="font-family:'MesloLGS-NF-Regular'; font-size:20px;">#66023C</text>
	</g>
</g>
<g>
	<rect x="5437.3" y="4837" class="st21" width="200" height="200"/>
	<text transform="matrix(1 0 0 1 5442.2661 5067.0273)" style="font-family:'MesloLGS-NF-Regular'; font-size:20px;">3.4.0</text>
	<text transform="matrix(1 0 0 1 5442.2661 5092.0273)" style="font-family:'MesloLGS-NF-Regular'; font-size:20px;">Hibiscus</text>
	<text transform="matrix(1 0 0 1 5496.2661 4945.0273)" style="font-family:'MesloLGS-NF-Regular'; font-size:20px;">#B43757</text>
</g>
<g>
	<text transform="matrix(1 0 0 1 5768.5947 5167.3105)" style="font-family:'MesloLGS-NF-Regular'; font-size:20px;">3.5.0</text>
	<g>
		<rect x="5763.6" y="4937.3" class="st22" width="200" height="200"/>
		<text transform="matrix(1 0 0 1 5768.5947 5192.3105)" style="font-family:'MesloLGS-NF-Regular'; font-size:20px;">Cardinal</text>
		<text transform="matrix(1 0 0 1 5822.5947 5045.3105)" style="font-family:'MesloLGS-NF-Regular'; font-size:20px;">#C41E3A</text>
	</g>
</g>
<g>
	<text transform="matrix(1 0 0 1 6407.4971 2736.667)" style="font-family:'MesloLGS-NF-Regular'; font-size:20px;">3.6.0</text>
	<g>
		<rect x="6402.5" y="2506.7" class="st23" width="200" height="200"/>
		<text transform="matrix(1 0 0 1 6407.4971 2761.667)" style="font-family:'MesloLGS-NF-Regular'; font-size:20px;">Arctic</text>
		<text transform="matrix(1 0 0 1 6461.4971 2614.667)" style="font-family:'MesloLGS-NF-Regular'; font-size:20px;">#90E0F7</text>
	</g>
</g>
<g>
	<text transform="matrix(1 0 0 1 6701.7695 3137.7681)" style="font-family:'MesloLGS-NF-Regular'; font-size:20px;">3.6.1</text>
	<g>
		<rect x="6696.8" y="2907.8" class="st24" width="200" height="200"/>
		<text transform="matrix(1 0 0 1 6701.7695 3162.7681)" style="font-family:'MesloLGS-NF-Regular'; font-size:20px;">Permafrost</text>
		<text transform="matrix(1 0 0 1 6755.7695 3015.7681)" style="font-family:'MesloLGS-NF-Regular'; font-size:20px;">#AEEDF7</text>
	</g>
</g>
<g>
	<rect x="8123.6" y="2231.4" class="st25" width="200" height="200"/>
	<text transform="matrix(1 0 0 1 8128.6465 2461.4258)" style="font-family:'MesloLGS-NF-Regular'; font-size:20px;">3.7.0</text>
	<text transform="matrix(1 0 0 1 8128.6465 2486.4258)" style="font-family:'MesloLGS-NF-Regular'; font-size:20px;">Malachite</text>
	<text transform="matrix(1 0 0 1 8182.6465 2339.4255)" style="font-family:'MesloLGS-NF-Regular'; font-size:20px;">#0BDA51</text>
</g>
<g>
	<rect x="9725.6" y="1906.6" class="st26" width="200" height="200"/>
	<text transform="matrix(1 0 0 1 9730.6328 2136.5752)" style="font-family:'MesloLGS-NF-Regular'; font-size:20px;">3.7.1</text>
	<text transform="matrix(1 0 0 1 9730.6328 2161.5752)" style="font-family:'MesloLGS-NF-Regular'; font-size:20px;">Evergreen</text>
	<text transform="matrix(1 0 0 1 9784.6328 2014.575)" style="font-family:'MesloLGS-NF-Regular'; font-size:20px;">#05472A</text>
</g>
<g>
	<rect x="8252.4" y="4529.1" class="st27" width="200" height="200"/>
	<text transform="matrix(1 0 0 1 8257.4141 4759.0713)" style="font-family:'MesloLGS-NF-Regular'; font-size:20px;">3.8.0</text>
	<text transform="matrix(1 0 0 1 8257.4141 4784.0713)" style="font-family:'MesloLGS-NF-Regular'; font-size:20px;">Citrine</text>
	<text transform="matrix(1 0 0 1 8311.4141 4637.0713)" style="font-family:'MesloLGS-NF-Regular'; font-size:20px;">#E4D00A</text>
</g>
<g>
	<rect x="7095.3" y="4026.8" class="st28" width="200" height="200"/>
	<text transform="matrix(1 0 0 1 7100.2788 4256.8408)" style="font-family:'MesloLGS-NF-Regular'; font-size:20px;">3.8.1</text>
	<text transform="matrix(1 0 0 1 7100.2788 4281.8408)" style="font-family:'MesloLGS-NF-Regular'; font-size:20px;">Granola</text>
	<text transform="matrix(1 0 0 1 7154.2788 4134.8408)" style="font-family:'MesloLGS-NF-Regular'; font-size:20px;">#D6B85A</text>
</g>
<g>
	<rect x="6097.2" y="2935.4" class="st29" width="200" height="200"/>
	<text transform="matrix(1 0 0 1 6102.2114 3165.4346)" style="font-family:'MesloLGS-NF-Regular'; font-size:20px;">3.9.0</text>
	<text transform="matrix(1 0 0 1 6102.2114 3190.4346)" style="font-family:'MesloLGS-NF-Regular'; font-size:20px;">Denim</text>
	<text transform="matrix(1 0 0 1 6156.2114 3043.4346)" style="font-family:'MesloLGS-NF-Regular'; font-size:20px;">#6F8FAF</text>
</g>
<g>
	<rect x="5763.4" y="3628.8" class="st30" width="200" height="200"/>
	<text transform="matrix(1 0 0 1 5768.4287 3858.8076)" style="font-family:'MesloLGS-NF-Regular'; font-size:20px;">3.10.0</text>
	<text transform="matrix(1 0 0 1 5768.4287 3883.8076)" style="font-family:'MesloLGS-NF-Regular'; font-size:20px;">Elsie</text>
	<text transform="matrix(1 0 0 1 5822.4287 3736.8076)" style="font-family:'MesloLGS-NF-Regular'; font-size:20px;">#D79FC7</text>
</g>
<g>
	<rect x="6413.2" y="3917.6" class="st31" width="200" height="200"/>
	<text transform="matrix(1 0 0 1 6418.1982 4147.6475)" style="font-family:'MesloLGS-NF-Regular'; font-size:20px;">3.11.0</text>
	<text transform="matrix(1 0 0 1 6418.1982 4172.6475)" style="font-family:'MesloLGS-NF-Regular'; font-size:20px;">Peachpuff</text>
	<text transform="matrix(1 0 0 1 6472.1982 4025.6472)" style="font-family:'MesloLGS-NF-Regular'; font-size:20px;">#FFDAB9</text>
</g>
<g>
	<rect x="5594.1" y="4073.8" class="st32" width="200" height="200"/>
	<text transform="matrix(1 0 0 1 5599.1318 4303.8408)" style="font-family:'MesloLGS-NF-Regular'; font-size:20px;">3.11.1</text>
	<text transform="matrix(1 0 0 1 5599.1318 4328.8408)" style="font-family:'MesloLGS-NF-Regular'; font-size:20px;">Thulian</text>
	<text transform="matrix(1 0 0 1 5653.1318 4181.8408)" style="font-family:'MesloLGS-NF-Regular'; font-size:20px;">#DE6FA1</text>
</g>
<g>
	<rect x="6651.8" y="3256.7" class="st33" width="200" height="200"/>
	<text transform="matrix(1 0 0 1 6656.8135 3486.7178)" style="font-family:'MesloLGS-NF-Regular'; font-size:20px;">3.12.0</text>
	<text transform="matrix(1 0 0 1 6656.8135 3511.7178)" style="font-family:'MesloLGS-NF-Regular'; font-size:20px;">Lily</text>
	<text transform="matrix(1 0 0 1 6710.8135 3364.7178)" style="font-family:'MesloLGS-NF-Regular'; font-size:20px;">#FAF6F0</text>
</g>
<g>
	<rect x="6418" y="3195.8" class="st34" width="200" height="200"/>
	<text transform="matrix(1 0 0 1 6423.0264 3425.8049)" style="font-family:'MesloLGS-NF-Regular'; font-size:20px;">3.12.1</text>
	<text transform="matrix(1 0 0 1 6423.0264 3450.8049)" style="font-family:'MesloLGS-NF-Regular'; font-size:20px;">Diantha</text>
	<text transform="matrix(1 0 0 1 6477.0264 3303.8047)" style="font-family:'MesloLGS-NF-Regular'; font-size:20px;">#F7FAFE</text>
</g>
<g>
	<rect x="7828.7" y="4684.1" class="st35" width="200" height="200"/>
	<text transform="matrix(1 0 0 1 7833.7295 4914.0718)" style="font-family:'MesloLGS-NF-Regular'; font-size:20px;">3.13.0</text>
	<text transform="matrix(1 0 0 1 7833.7295 4939.0718)" style="font-family:'MesloLGS-NF-Regular'; font-size:20px;">Immortelle</text>
	<text transform="matrix(1 0 0 1 7887.7295 4792.0718)" style="font-family:'MesloLGS-NF-Regular'; font-size:20px;">#D4A207</text>
</g>
<g>
	<rect x="7586.9" y="3541.2" class="st36" width="200" height="200"/>
	<text transform="matrix(1 0 0 1 7591.9463 3771.1514)" style="font-family:'MesloLGS-NF-Regular'; font-size:20px;">3.14.0</text>
	<text transform="matrix(1 0 0 1 7591.9463 3796.1514)" style="font-family:'MesloLGS-NF-Regular'; font-size:20px;">Payton</text>
	<text transform="matrix(1 0 0 1 7645.9463 3649.1509)" style="font-family:'MesloLGS-NF-Regular'; font-size:20px;">#81BE83</text>
</g>
<g>
	<rect x="9818.7" y="3434.1" class="st37" width="200" height="200"/>
	<text transform="matrix(1 0 0 1 9823.709 3664.1218)" style="font-family:'MesloLGS-NF-Regular'; font-size:20px;">3.14.1</text>
	<text transform="matrix(1 0 0 1 9823.709 3689.1218)" style="font-family:'MesloLGS-NF-Regular'; font-size:20px;">Pine</text>
	<text transform="matrix(1 0 0 1 9877.709 3542.1218)" style="font-family:'MesloLGS-NF-Regular'; font-size:20px;">#234F1E</text>
</g>
<g>
	<rect x="5687.7" y="3123.3" class="st38" width="200" height="200"/>
	<text transform="matrix(1 0 0 1 5692.7354 3353.3047)" style="font-family:'MesloLGS-NF-Regular'; font-size:20px;">3.15.0</text>
	<text transform="matrix(1 0 0 1 5692.7354 3378.3047)" style="font-family:'MesloLGS-NF-Regular'; font-size:20px;">Rhythm</text>
	<text transform="matrix(1 0 0 1 5746.7354 3231.3042)" style="font-family:'MesloLGS-NF-Regular'; font-size:20px;">#777696</text>
</g>
<g>
	<rect x="5946.5" y="4499.2" class="st39" width="200" height="200"/>
	<text transform="matrix(1 0 0 1 5951.4756 4729.2466)" style="font-family:'MesloLGS-NF-Regular'; font-size:20px;">4.0.0</text>
	<text transform="matrix(1 0 0 1 5951.4756 4754.2466)" style="font-family:'MesloLGS-NF-Regular'; font-size:20px;">Popstar</text>
	<text transform="matrix(1 0 0 1 6005.4756 4607.2466)" style="font-family:'MesloLGS-NF-Regular'; font-size:20px;">#B5545D</text>
</g>
<g>
	<rect x="6420.2" y="4645.6" class="st40" width="200" height="200"/>
	<text transform="matrix(1 0 0 1 6425.2275 4875.6387)" style="font-family:'MesloLGS-NF-Regular'; font-size:20px;">4.0.1</text>
	<text transform="matrix(1 0 0 1 6425.2275 4900.6387)" style="font-family:'MesloLGS-NF-Regular'; font-size:20px;">Kokam</text>
	<text transform="matrix(1 0 0 1 6479.2275 4753.6387)" style="font-family:'MesloLGS-NF-Regular'; font-size:20px;">#C94040</text>
</g>
<g>
	<rect x="4711.9" y="4084.1" class="st41" width="200" height="200"/>
	<text transform="matrix(1 0 0 1 4716.9014 4314.0908)" style="font-family:'MesloLGS-NF-Regular'; font-size:20px;">4.1.0</text>
	<text transform="matrix(1 0 0 1 4716.9014 4339.0908)" style="font-family:'MesloLGS-NF-Regular'; font-size:20px;">Purpure</text>
	<text transform="matrix(1 0 0 1 4770.9014 4192.0908)" style="font-family:'MesloLGS-NF-Regular'; font-size:20px;">#A54E77</text>
</g>
<g>
	<rect x="4767.4" y="3095.8" class="st42" width="200" height="200"/>
	<text transform="matrix(1 0 0 1 4772.4351 3325.8042)" style="font-family:'MesloLGS-NF-Regular'; font-size:20px;">4.1.1</text>
	<text transform="matrix(1 0 0 1 4772.4351 3350.8042)" style="font-family:'MesloLGS-NF-Regular'; font-size:20px;">Amethyst</text>
	<text transform="matrix(1 0 0 1 4826.4351 3203.8042)" style="font-family:'MesloLGS-NF-Regular'; font-size:20px;">#9966CC</text>
</g>
<g>
	<rect x="8323.6" y="1799.4" class="st43" width="200" height="200"/>
	<text transform="matrix(1 0 0 1 8328.6465 2029.4386)" style="font-family:'MesloLGS-NF-Regular'; font-size:20px;">4.2.0</text>
	<text transform="matrix(1 0 0 1 8328.6465 2054.4385)" style="font-family:'MesloLGS-NF-Regular'; font-size:20px;">Weed</text>
	<text transform="matrix(1 0 0 1 8382.6465 1907.4386)" style="font-family:'MesloLGS-NF-Regular'; font-size:20px;">#059033</text>
</g>
<g>
	<rect x="9894.6" y="3894.6" class="st44" width="200" height="200"/>
	<text transform="matrix(1 0 0 1 9899.5977 4124.6357)" style="font-family:'MesloLGS-NF-Regular'; font-size:20px;">4.2.1</text>
	<text transform="matrix(1 0 0 1 9899.5977 4149.6357)" style="font-family:'MesloLGS-NF-Regular'; font-size:20px;">Kelp</text>
	<text transform="matrix(1 0 0 1 9953.5977 4002.636)" style="font-family:'MesloLGS-NF-Regular'; font-size:20px;">#283B1F</text>
</g>
<g>
	<rect x="8583.7" y="1598.2" class="st45" width="200" height="200"/>
	<text transform="matrix(1 0 0 1 8588.6973 1828.1805)" style="font-family:'MesloLGS-NF-Regular'; font-size:20px;">4.2.2</text>
	<text transform="matrix(1 0 0 1 8588.6973 1853.1805)" style="font-family:'MesloLGS-NF-Regular'; font-size:20px;">Clover</text>
	<text transform="matrix(1 0 0 1 8642.6973 1706.1805)" style="font-family:'MesloLGS-NF-Regular'; font-size:20px;">#207337</text>
</g>
<g>
	<rect x="6413.3" y="5373.7" class="st46" width="200" height="200"/>
	<text transform="matrix(1 0 0 1 6418.3179 5603.6934)" style="font-family:'MesloLGS-NF-Regular'; font-size:20px;">4.3.0</text>
	<text transform="matrix(1 0 0 1 6418.3179 5628.6934)" style="font-family:'MesloLGS-NF-Regular'; font-size:20px;">Firebrick</text>
	<text transform="matrix(1 0 0 1 6472.3179 5481.6934)" style="font-family:'MesloLGS-NF-Regular'; font-size:20px;">#B22222</text>
</g>
<g>
	<rect x="6411.2" y="5092" class="st47" width="200" height="200"/>
	<text transform="matrix(1 0 0 1 6416.2373 5322.0269)" style="font-family:'MesloLGS-NF-Regular'; font-size:20px;">4.3.1</text>
	<text transform="matrix(1 0 0 1 6416.2373 5347.0269)" style="font-family:'MesloLGS-NF-Regular'; font-size:20px;">Firebrick2</text>
	<text transform="matrix(1 0 0 1 6470.2373 5200.0269)" style="font-family:'MesloLGS-NF-Regular'; font-size:20px;">#EE2C2C</text>
</g>
<g>
	<rect x="6447.7" y="5726.7" class="st48" width="200" height="200"/>
	<text transform="matrix(1 0 0 1 6452.7314 5956.6753)" style="font-family:'MesloLGS-NF-Regular'; font-size:20px;">4.3.2</text>
	<text transform="matrix(1 0 0 1 6452.7314 5981.6753)" style="font-family:'MesloLGS-NF-Regular'; font-size:20px;">Firebrick4</text>
	<text transform="matrix(1 0 0 1 6506.7314 5834.6753)" style="font-family:'MesloLGS-NF-Regular'; font-size:20px;">#8B1A1A</text>
</g>
<g>
	<rect x="7853" y="4275.3" class="st49" width="200" height="200"/>
	<text transform="matrix(1 0 0 1 7858.0361 4505.2803)" style="font-family:'MesloLGS-NF-Regular'; font-size:20px;">5.0.0</text>
	<text transform="matrix(1 0 0 1 7858.0361 4530.2803)" style="font-family:'MesloLGS-NF-Regular'; font-size:20px;">Canary</text>
	<text transform="matrix(1 0 0 1 7912.0361 4383.2803)" style="font-family:'MesloLGS-NF-Regular'; font-size:20px;">#FFEF00</text>
</g>
<g>
	<rect x="7386.9" y="4329.1" class="st50" width="200" height="200"/>
	<text transform="matrix(1 0 0 1 7391.9468 4559.124)" style="font-family:'MesloLGS-NF-Regular'; font-size:20px;">5.0.1</text>
	<text transform="matrix(1 0 0 1 7391.9468 4584.124)" style="font-family:'MesloLGS-NF-Regular'; font-size:20px;">Toucan</text>
	<text transform="matrix(1 0 0 1 7445.9468 4437.124)" style="font-family:'MesloLGS-NF-Regular'; font-size:20px;">#F8CC52</text>
</g>
<g>
	<rect x="5663.4" y="2795.5" class="st51" width="200" height="200"/>
	<text transform="matrix(1 0 0 1 5668.4287 3025.5217)" style="font-family:'MesloLGS-NF-Regular'; font-size:20px;">5.1.0</text>
	<text transform="matrix(1 0 0 1 5668.4287 3050.5217)" style="font-family:'MesloLGS-NF-Regular'; font-size:20px;">Periwinkle</text>
	<text transform="matrix(1 0 0 1 5722.4287 2903.5217)" style="font-family:'MesloLGS-NF-Regular'; font-size:20px;">#8F99FB</text>
</g>
<g>
	<rect x="5236.1" y="2565.2" class="st52" width="200" height="200"/>
	<text transform="matrix(1 0 0 1 5241.1411 2795.2385)" style="font-family:'MesloLGS-NF-Regular'; font-size:20px;">5.1.1</text>
	<text transform="matrix(1 0 0 1 5241.1411 2820.2385)" style="font-family:'MesloLGS-NF-Regular'; font-size:20px;">Indigo</text>
	<text transform="matrix(1 0 0 1 5295.1411 2673.2385)" style="font-family:'MesloLGS-NF-Regular'; font-size:20px;">#6A5DFF</text>
</g>
<g>
	<rect x="8683.7" y="3875.4" class="st53" width="200" height="200"/>
	<text transform="matrix(1 0 0 1 8688.6973 4105.4194)" style="font-family:'MesloLGS-NF-Regular'; font-size:20px;">5.2.0</text>
	<text transform="matrix(1 0 0 1 8688.6973 4130.4194)" style="font-family:'MesloLGS-NF-Regular'; font-size:20px;">Slime</text>
	<text transform="matrix(1 0 0 1 8742.6973 3983.4194)" style="font-family:'MesloLGS-NF-Regular'; font-size:20px;">#A0DC00</text>
</g>
<g>
	<rect x="9043.9" y="2303.9" class="st54" width="200" height="200"/>
	<text transform="matrix(1 0 0 1 9048.8682 2533.9258)" style="font-family:'MesloLGS-NF-Regular'; font-size:20px;">5.2.1</text>
	<text transform="matrix(1 0 0 1 9048.8682 2558.9258)" style="font-family:'MesloLGS-NF-Regular'; font-size:20px;">LLFNCSoftDrink</text>
	<text transform="matrix(1 0 0 1 9102.8682 2411.9258)" style="font-family:'MesloLGS-NF-Regular'; font-size:20px;">#00BA47</text>
</g>
<g>
	<rect x="6454.3" y="686.6" class="st55" width="200" height="200"/>
	<text transform="matrix(1 0 0 1 6459.3174 916.6102)" style="font-family:'MesloLGS-NF-Regular'; font-size:20px;">5.3.0</text>
	<text transform="matrix(1 0 0 1 6459.3174 941.6102)" style="font-family:'MesloLGS-NF-Regular'; font-size:20px;">Phthalo</text>
	<text transform="matrix(1 0 0 1 6513.3174 794.6102)" style="font-family:'MesloLGS-NF-Regular'; font-size:20px;">#195256</text>
</g>
<g>
	<rect x="6916.3" y="916.9" class="st56" width="200" height="200"/>
	<text transform="matrix(1 0 0 1 6921.2637 1146.8933)" style="font-family:'MesloLGS-NF-Regular'; font-size:20px;">5.3.1</text>
	<text transform="matrix(1 0 0 1 6921.2637 1171.8933)" style="font-family:'MesloLGS-NF-Regular'; font-size:20px;">Skobeloff</text>
	<text transform="matrix(1 0 0 1 6975.2637 1024.8933)" style="font-family:'MesloLGS-NF-Regular'; font-size:20px;">#007474</text>
</g>
<g>
	<rect x="6916.3" y="1389.8" class="st57" width="200" height="200"/>
	<text transform="matrix(1 0 0 1 6921.2637 1619.7542)" style="font-family:'MesloLGS-NF-Regular'; font-size:20px;">5.3.2</text>
	<text transform="matrix(1 0 0 1 6921.2637 1644.7542)" style="font-family:'MesloLGS-NF-Regular'; font-size:20px;">Verdigris</text>
	<text transform="matrix(1 0 0 1 6975.2637 1497.7542)" style="font-family:'MesloLGS-NF-Regular'; font-size:20px;">#43B3AE</text>
</g>
<g>
	<rect x="7408.7" y="1551.6" class="st58" width="200" height="200"/>
	<text transform="matrix(1 0 0 1 7413.6699 1781.5977)" style="font-family:'MesloLGS-NF-Regular'; font-size:20px;">5.3.3</text>
	<text transform="matrix(1 0 0 1 7413.6699 1806.5977)" style="font-family:'MesloLGS-NF-Regular'; font-size:20px;">Keppel</text>
	<text transform="matrix(1 0 0 1 7467.6699 1659.5977)" style="font-family:'MesloLGS-NF-Regular'; font-size:20px;">#3AB09E</text>
</g>
<g>
	<rect x="4802.1" y="4929" class="st59" width="200" height="200"/>
	<text transform="matrix(1 0 0 1 4807.0728 5158.9551)" style="font-family:'MesloLGS-NF-Regular'; font-size:20px;">5.4.0</text>
	<text transform="matrix(1 0 0 1 4807.0728 5183.9551)" style="font-family:'MesloLGS-NF-Regular'; font-size:20px;">Quinacridone</text>
	<text transform="matrix(1 0 0 1 4861.0728 5036.9551)" style="font-family:'MesloLGS-NF-Regular'; font-size:20px;">#9A114F</text>
</g>
<g>
	<rect x="4708.2" y="4537.5" class="st60" width="200" height="200"/>
	<text transform="matrix(1 0 0 1 4713.2148 4767.5215)" style="font-family:'MesloLGS-NF-Regular'; font-size:20px;">5.4.1</text>
	<text transform="matrix(1 0 0 1 4713.2148 4792.5215)" style="font-family:'MesloLGS-NF-Regular'; font-size:20px;">Telemagenta</text>
	<text transform="matrix(1 0 0 1 4767.2148 4645.5215)" style="font-family:'MesloLGS-NF-Regular'; font-size:20px;">#CF3476</text>
</g>
</svg>
